<svg xmlns="http://www.w3.org/2000/svg" width="128" height="128"><linearGradient id="a" x1="30.182" x2="101.98" y1="23.927" y2="97.824" gradientUnits="userSpaceOnUse"><stop offset="0" stop-color="#ff1300"/><stop offset="1" stop-color="#ff6e01"/></linearGradient><rect width="124" height="124" x="2" y="2" fill="#382c2c" stroke="#1a1616" stroke-width="4" rx="14"/><path fill="url(#a)" d="m51.385 16.054-2.414 7.558-7.767 3.359-8.293-1.575L21.47 43.241l1.994 3.463 40.727 14.171 40.413-14.17 2.1-3.57-11.652-17.739-8.188 1.575-7.977-3.36-2.414-7.557zM25.04 63.919l2.624 10.812 18.474 8.397 17.845-6.613 18.054 6.718 18.58-8.502 2.518-10.707-1.68-11.966-37.263 12.806-37.683-12.806zm10.18-2.939 17.635 6.403-.42 1.89a9.564 9.564 0 0 1-17.95-6.613zm57.523 0 .84 1.68a9.564 9.564 0 0 1-17.95 6.612l-.42-1.889zM21.68 68.223l-4.41 4.407 6.613 23.618 21.308 8.712-1.154-18.369-20.154-9.342zm84.708 0-2.204 9.027-20.154 9.342-1.154 18.264 21.203-8.712 6.718-23.513zM64.086 80.294l-15.955 6.403.945 19.734 15.115 6.088 14.8-6.088 1.05-19.734z"/></svg>